<?xml version="1.0" encoding="UTF-8" standalone="no"?>
<!-- Created with Inkscape (http://www.inkscape.org/) -->

<svg
   xmlns:dc="http://purl.org/dc/elements/1.1/"
   xmlns:cc="http://creativecommons.org/ns#"
   xmlns:rdf="http://www.w3.org/1999/02/22-rdf-syntax-ns#"
   xmlns:svg="http://www.w3.org/2000/svg"
   xmlns="http://www.w3.org/2000/svg"
   xmlns:sodipodi="http://sodipodi.sourceforge.net/DTD/sodipodi-0.dtd"
   xmlns:inkscape="http://www.inkscape.org/namespaces/inkscape"
   version="1.1"
   id="svg2"
   width="1000"
   height="889.24359"
   viewBox="0 0 1000 889.24359"
   sodipodi:docname="Sleeves_revised.svg"
   inkscape:version="0.92.4 (5da689c313, 2019-01-14)">
  <metadata
     id="metadata8">
    <rdf:RDF>
      <cc:Work
         rdf:about="">
        <dc:format>image/svg+xml</dc:format>
        <dc:type
           rdf:resource="http://purl.org/dc/dcmitype/StillImage" />
        <dc:title></dc:title>
      </cc:Work>
    </rdf:RDF>
  </metadata>
  <defs
     id="defs6" />
  <sodipodi:namedview
     pagecolor="#ffffff"
     bordercolor="#666666"
     borderopacity="1"
     objecttolerance="10"
     gridtolerance="10"
     guidetolerance="10"
     inkscape:pageopacity="0"
     inkscape:pageshadow="2"
     inkscape:window-width="1920"
     inkscape:window-height="1017"
     id="namedview4"
     showgrid="false"
     fit-margin-top="0"
     fit-margin-left="0"
     fit-margin-right="0"
     fit-margin-bottom="0"
     inkscape:zoom="0.29879535"
     inkscape:cx="702.67109"
     inkscape:cy="515.94075"
     inkscape:window-x="-8"
     inkscape:window-y="-8"
     inkscape:window-maximized="1"
     inkscape:current-layer="svg2" />
  <path
     style="fill:none;stroke:#000000;stroke-width:1px;stroke-linecap:butt;stroke-linejoin:miter;stroke-opacity:1"
     d="M 1696.7502,-407.02994 V 884.82419"
     id="path4757"
     inkscape:connector-curvature="0" />
  <path
     style="fill:#e9a940;fill-opacity:1;stroke:none;stroke-width:0.85126901px;stroke-linecap:butt;stroke-linejoin:miter;stroke-opacity:1"
     d="m 499.9991,0 v 0 l 68.7335,169.8697 -48.4343,107.90669 v 0 l -2.4923,55.19944 C 589.4807,295.84526 615.1991,232.53519 652.4229,165.59676 L 1000,43.08885 l -4.9845,19.94327 -156.6968,132.47874 -145.2975,8.54759 -8.5477,17.09357 251.4236,-14.24548 c 0,0 -1.6494,13.36893 -9.4604,17.75697 -52.5348,29.51315 -145.0615,70.85818 -145.0615,70.85818 l -118.9815,-27.36029 -11.2178,17.27139 193.845,45.49301 -169.095,51.0163 -76.566,-48.25461 -79.4158,67.66422 -0.7132,118.94654 c 20.2079,-11.79118 69.4254,-19.60489 73.0063,-92.41589 l 179.8422,-55.0199 -27.7776,61.25315 -134.6153,54.1304 -7.3005,23.68256 126.9587,-52.88508 -17.8051,50.57065 -108.0846,67.84223 C 574.9429,551.25473 529.1626,547.00443 517.0943,562.3197 l -0.7282,79.39743 86.0764,-38.08594 c -56.308,77.98645 -85.6698,167.68407 -96.0323,282.05104 l -6.4094,3.56137 -6.4111,-3.56137 C 483.2272,771.31526 453.8672,681.61764 397.5592,603.63119 l 86.0746,38.08594 -0.7282,-79.39743 c -12.0682,-15.31527 -57.8485,-11.06497 -86.3606,15.13667 l -108.0846,-67.84223 -17.8051,-50.57065 126.9587,52.88508 -7.3005,-23.68256 -134.6152,-54.1304 -27.7793,-61.25477 179.8438,55.02152 c 3.5809,72.811 52.7984,80.62471 73.0063,92.41589 L 480.0558,401.35171 400.6401,333.68749 324.074,381.9421 154.9792,330.9258 348.8241,285.43279 337.6062,268.1614 218.6249,295.52169 c 0,0 -92.5267,-41.34503 -145.0616,-70.85818 -7.811,-4.38804 -9.4604,-17.75697 -9.4604,-17.75697 L 315.5264,221.15202 306.9788,204.05845 161.6796,195.51086 4.9846,63.03212 0,43.08885 347.5771,165.59676 c 37.2237,66.93843 62.9421,130.2485 134.6168,167.37907 L 479.7,277.77639 431.2674,169.8697 Z"
     id="path4759"
     inkscape:connector-curvature="0" />
</svg>
